A group of mountaineers in the Scottish Highlands discover a kidnapped girl and are pursued by her captors.

Director:
Julian Gilbey
Writers:
Julian Gilbey, Will Gilbey
Stars:
Melissa George, Ed Speleers and Eamonn Walker 

Media info:


General
Unique ID                        : 217207459905932559182462235416119457641 (0xA368A297130C7E45BF9EF488A0DFB769)
Complete name                    : E:\torrent2\Alonely place to die(2011)blurayrip.MKV.AVC.DTS 5.1.ACB-team\Alonely place to die(2011)blurayrip.MKV.AVC.DTS 5.1.ACB-team.mkv
Format                           : Matroska
Format version                   : Version 2
File size                        : 8.96 GiB
Duration                         : 1h 39mn
Overall bit rate mode            : Variable
Overall bit rate                 : 12.9 Mbps
Movie name                       : movie
Encoded date                     : UTC 2012-01-04 15:43:46
Writing application              : mkvmerge v3.2.0 ('Beginnings') built on Feb 12 2010 16:46:17
Writing library                  : libebml v0.7.9 + libmatroska v0.8.1

Video
ID                               : 1
Format                           : AVC
Format/Info                      : Advanced Video Codec
Format profile                   : High@L4.1
Format settings, CABAC           : Yes
Format settings, ReFrames        : 2 frames
Muxing mode                      : Container profile=Unknown@0.0
Codec ID                         : V_MPEG4/ISO/AVC
Duration                         : 1h 39mn
Bit rate mode                    : Variable
Bit rate                         : 12.3 Mbps
Maximum bit rate                 : 35.0 Mbps
Width                            : 1 920 pixels
Height                           : 1 080 pixels
Display aspect ratio             : 16:9
Frame rate                       : 23.976 fps
Color space                      : YUV
Chroma subsampling               : 4:2:0
Bit depth                        : 8 bits
Scan type                        : Progressive
Bits/(Pixel*Frame)               : 0.247
Stream size                      : 8.25 GiB (92%)
Writing library                  : x264 core 118 r2085 8a62835
Encoding settings                : cabac=1 / ref=1 / deblock=1:0:0 / analyse=0x3:0x3 / me=dia / subme=1 / psy=1 / psy_rd=1.00:0.00 / mixed_ref=0 / me_range=16 / chroma_me=1 / trellis=0 / 8x8dct=1 / cqm=0 / deadzone=21,11 / fast_pskip=1 / chroma_qp_offset=0 / threads=3 / sliced_threads=0 / slices=4 / nr=0 / decimate=1 / interlaced=0 / bluray_compat=1 / constrained_intra=0 / bframes=3 / b_pyramid=0 / b_adapt=1 / b_bias=0 / direct=1 / weightb=1 / open_gop=0 / weightp=1 / keyint=24 / keyint_min=1 / scenecut=40 / intra_refresh=0 / rc_lookahead=0 / rc=abr / mbtree=0 / bitrate=12259 / ratetol=1.0 / qcomp=0.60 / qpmin=0 / qpmax=69 / qpstep=4 / vbv_maxrate=35000 / vbv_bufsize=30000 / nal_hrd=vbr / ip_ratio=1.10 / pb_ratio=1.10 / aq=1:1.00
Default                          : No
Forced                           : No

Audio
ID                               : 2
Format                           : DTS
Format/Info                      : Digital Theater Systems
Codec ID                         : A_DTS
Duration                         : 1h 39mn
Bit rate mode                    : Constant
Bit rate                         : 755 Kbps
Channel(s)                       : 6 channels
Channel positions                : Front: L C R, Side: L R, LFE
Sampling rate                    : 48.0 KHz
Bit depth                        : 24 bits
Compression mode                 : Lossy
Stream size                      : 535 MiB (6%)
Language                         : English
Default                          : Yes
Forced                           : No

Text #1
ID                               : 3
Format                           : VobSub
Muxing mode                      : zlib
Codec ID                         : S_VOBSUB
Codec ID/Info                    : The same subtitle format used on DVDs
Language                         : German
Default                          : Yes
Forced                           : No

Text #2
ID                               : 4
Format                           : UTF-8
Codec ID                         : S_TEXT/UTF8
Codec ID/Info                    : UTF-8 Plain Text
Language                         : Dutch
Default                          : No
Forced                           : No

Menu
00:00:00.000                     : en:00:00:00.000
00:07:55.933                     : en:00:07:55.933
00:15:54.912                     : en:00:15:54.912
00:26:38.513                     : en:00:26:38.513
00:32:24.567                     : en:00:32:24.567
00:39:16.479                     : en:00:39:16.479
00:47:24.675                     : en:00:47:24.675
00:56:43.149                     : en:00:56:43.149
01:03:55.498                     : en:01:03:55.498
01:13:18.936                     : en:01:13:18.936
01:20:37.999                     : en:01:20:37.999
01:27:54.269                     : en:01:27:54.269

